<svg width="80" height="80" viewBox="0 0 80 80" fill="none" xmlns="http://www.w3.org/2000/svg">
<path d="M16.6667 63.3333H21.4167L54 30.75L49.25 26L16.6667 58.5833V63.3333ZM10 70V55.8333L54 11.9167C54.6667 11.3056 55.4028 10.8333 56.2083 10.5C57.0139 10.1667 57.8611 10 58.75 10C59.6389 10 60.5 10.1667 61.3333 10.5C62.1667 10.8333 62.8889 11.3333 63.5 12L68.0833 16.6667C68.75 17.2778 69.2361 18 69.5417 18.8333C69.8472 19.6667 70 20.5 70 21.3333C70 22.2222 69.8472 23.0694 69.5417 23.875C69.2361 24.6806 68.75 25.4167 68.0833 26.0833L24.1667 70H10ZM51.5833 28.4167L49.25 26L54 30.75L51.5833 28.4167Z" fill="black"/>
</svg>
